<svg xmlns="http://www.w3.org/2000/svg" width="820" height="460"><rect width="100%" height="100%" fill="white"/><text x="80" y="28" font-size="18">Relative set-size change vs Mondrian</text><line x1="80" y1="55" x2="80" y2="395" stroke="black"/><line x1="80" y1="395" x2="780" y2="395" stroke="black"/>
<text x="72.0" y="415" font-size="11">5</text>
<text x="108.8" y="415" font-size="11">10</text>
<text x="182.5" y="415" font-size="11">20</text>
<text x="403.6" y="415" font-size="11">50</text>
<text x="772.0" y="415" font-size="11">100</text>
<text x="320.0" y="448" font-size="13">rare calibration support</text><text x="18" y="230.0" transform="rotate(-90 18 230.0)" font-size="13">percent</text>
<polyline fill="none" stroke="#1f77b4" stroke-width="2" points="80.0,395.0 116.8,72.4 190.5,55.0 411.6,55.7 780.0,65.3"/><text x="490" y="54" font-size="11" fill="#1f77b4">ordinal_cluster</text>
<polyline fill="none" stroke="#ff7f0e" stroke-width="2" points="80.0,98.9 116.8,137.7 190.5,130.3 411.6,126.0 780.0,136.2"/><text x="490" y="73" font-size="11" fill="#ff7f0e">input_dependent_nonordinal</text>
<polyline fill="none" stroke="#2ca02c" stroke-width="2" points="80.0,100.1 116.8,140.1 190.5,132.2 411.6,125.0 780.0,136.3"/><text x="490" y="92" font-size="11" fill="#2ca02c">input_dependent_ordinal</text>
</svg>