<svg xmlns="http://www.w3.org/2000/svg" width="820" height="460"><rect width="100%" height="100%" fill="white"/><text x="80" y="28" font-size="18">Relative set-size change vs Mondrian</text><line x1="80" y1="55" x2="80" y2="395" stroke="black"/><line x1="80" y1="395" x2="780" y2="395" stroke="black"/>
<text x="72.0" y="415" font-size="11">5</text>
<text x="108.8" y="415" font-size="11">10</text>
<text x="182.5" y="415" font-size="11">20</text>
<text x="403.6" y="415" font-size="11">50</text>
<text x="772.0" y="415" font-size="11">100</text>
<text x="320.0" y="448" font-size="13">rare calibration support</text><text x="18" y="230.0" transform="rotate(-90 18 230.0)" font-size="13">percent</text>
<polyline fill="none" stroke="#1f77b4" stroke-width="2" points="80.0,395.0 116.8,67.4 190.5,57.6 411.6,55.0 780.0,74.8"/><text x="490" y="54" font-size="11" fill="#1f77b4">ordinal_cluster</text>
<polyline fill="none" stroke="#ff7f0e" stroke-width="2" points="80.0,76.6 116.8,92.4 190.5,102.0 411.6,92.5 780.0,97.3"/><text x="490" y="73" font-size="11" fill="#ff7f0e">input_dependent_nonordinal</text>
<polyline fill="none" stroke="#2ca02c" stroke-width="2" points="80.0,77.4 116.8,94.4 190.5,102.7 411.6,92.2 780.0,97.5"/><text x="490" y="92" font-size="11" fill="#2ca02c">input_dependent_ordinal</text>
</svg>